
<svg width="67" height="67" viewBox="0 0 67 67" fill="none" xmlns="http://www.w3.org/2000/svg">
<path d="M55.2317 55.2233C67.3607 43.0942 67.3607 23.4293 55.2317 11.3003C43.1026 -0.828624 23.4379 -0.828624 11.3089 11.3003C-0.820091 23.4293 -0.820091 43.0942 11.3089 55.2233C23.4379 67.3523 43.1026 67.3523 55.2317 55.2233Z" fill="white"/>
<path d="M33.2634 66.5257C14.9207 66.5257 0.000488281 51.6053 0.000488281 33.2629C0.000488281 14.9202 14.9207 0 33.2634 0C51.6061 0 66.5261 14.9202 66.5261 33.2629C66.5261 51.6053 51.6061 66.5257 33.2634 66.5257ZM33.2634 4.40942C17.3434 4.40942 4.3971 17.3557 4.3971 33.2757C4.3971 49.1959 17.3434 62.142 33.2634 62.142C49.1835 62.142 62.1296 49.1959 62.1296 33.2757C62.1296 17.3557 49.1835 4.40942 33.2634 4.40942Z" fill="#62841B"/>
<path fill-rule="evenodd" clip-rule="evenodd" d="M33.7011 11.7773C21.8355 11.7773 12.2166 21.3963 12.2166 33.2618C12.2166 45.1275 21.8355 54.7464 33.7011 54.7464C45.5666 54.7464 55.1854 45.1275 55.1854 33.2618C55.1854 21.3963 45.5666 11.7773 33.7011 11.7773ZM27.104 21.2169C27.1037 21.1835 28.5671 20.3622 30.3559 19.3915C32.1447 18.421 33.6404 17.6251 33.6791 17.623C33.7183 17.6209 33.9418 17.7308 34.1759 17.8675C34.4099 18.0042 35.6292 18.6797 36.8854 19.3687C39.4849 20.7942 40.4432 21.3304 40.5009 21.3915C40.5444 21.4375 40.2668 21.5745 37.5955 22.8249L36.9351 23.1341C36.2351 23.4617 35.4215 23.4398 34.7404 23.0749L34.6493 23.0261C34.0298 22.6945 33.2857 22.6946 32.6665 23.0263C32.1214 23.3185 31.6187 23.5595 31.5494 23.5619C31.3971 23.5675 27.1048 21.3032 27.104 21.2169ZM20.6484 26.7399C20.6484 25.4376 21.3637 24.2405 22.5105 23.6235C23.5346 23.0724 24.4507 22.6174 24.5461 22.6123C24.6416 22.6072 26.7113 23.6685 29.1454 24.9705C32.3747 26.6979 33.5361 27.3664 33.4406 27.4432C33.3689 27.501 32.8634 27.7545 32.3172 28.0067C31.7711 28.2588 31.1007 28.5733 30.8276 28.7058C30.4742 28.8764 30.1201 29.0455 29.7653 29.2128C29.4104 29.38 28.9965 29.3648 28.6548 29.1721L27.9281 28.7623C27.1811 28.3409 26.4345 27.9187 25.6884 27.4957C25.2562 27.2504 24.7201 27.5626 24.7201 28.0595V30.3249C24.7201 31.0909 24.2755 31.7873 23.5807 32.1097L22.7387 32.5003C21.6489 33.0059 20.7328 33.4196 20.7028 33.4196C20.6729 33.4196 20.6484 31.4409 20.6484 29.0225V26.7399ZM38.5283 25.0422C38.5297 25.013 39.5681 24.5012 40.8361 23.9048C42.1042 23.3083 43.1761 22.8192 43.2174 22.8179C43.2592 22.8164 44.053 23.2215 44.9823 23.7181C46.0202 24.273 46.6635 25.3591 46.6516 26.536L46.6441 27.2386L46.6314 28.5359C46.623 29.344 46.1553 30.077 45.4262 30.4251C44.7706 30.738 42.9609 31.5928 41.4042 32.3247C39.6327 33.1576 37.8617 33.9911 36.0912 34.8249C32.131 36.6905 30.2864 37.5556 27.8761 38.6785C26.6351 39.2562 25.6183 39.7595 25.6168 39.7965C25.6152 39.8335 25.692 39.8902 25.7877 39.9223C25.8833 39.9549 26.319 40.2004 26.7559 40.4679C27.1929 40.735 27.785 41.0817 28.0718 41.2384C28.3585 41.395 28.5932 41.5543 28.5932 41.5926C28.5932 41.6309 27.5542 42.1505 26.2842 42.7476L25.6813 43.0309C24.6074 43.5356 23.3584 43.5057 22.3102 42.9491C21.2873 42.4061 20.6525 41.3383 20.6644 40.1802L20.6716 39.4771C20.6938 37.307 20.7221 36.8749 20.847 36.8001C20.9712 36.7262 21.8759 36.2959 25.167 34.744C25.3034 34.6793 26.3334 34.1944 27.6046 33.596L28.3945 33.2239L34.8002 30.2078C36.7116 29.3076 39.0242 28.2197 39.9394 27.7903C40.8542 27.3607 41.6026 26.9829 41.6026 26.9505C41.6026 26.9181 40.9105 26.4874 40.0644 25.9933C39.2187 25.4994 38.5275 25.0713 38.5283 25.0422ZM45.0729 33.8754C45.4249 33.7122 45.9164 33.475 46.1654 33.3483C46.414 33.2218 46.6481 33.1144 46.6846 33.1099C46.777 33.0982 46.7849 41.7162 46.6925 41.8623C46.6516 41.927 45.7589 42.4431 44.709 43.0085C43.5175 43.6505 42.0831 43.6496 40.8929 43.0054L38.3317 41.6203C35.8738 40.2906 33.8947 39.1735 33.9343 39.1374C33.9735 39.1013 34.8099 38.7022 35.7933 38.2503C36.7763 37.7985 37.7082 37.3633 37.8644 37.2828C38.1341 37.1433 38.2058 37.1688 39.3538 37.8095C40.9444 38.6974 42.5262 39.5422 42.6261 39.558C42.6701 39.5646 42.7149 38.5359 42.7255 37.2722L42.7369 35.9087C42.7418 35.3371 43.0727 34.8183 43.5888 34.5728C44.053 34.3524 44.7209 34.0382 45.0729 33.8754ZM34.6013 43.9092C34.9322 43.7605 35.2635 43.6122 35.5944 43.4639C36.096 43.2391 36.6729 43.2575 37.1591 43.5136L38.4663 44.2022C39.609 44.8041 40.5576 45.3119 40.5748 45.3299C40.5919 45.3484 39.6794 45.8342 38.5473 46.4097C37.4147 46.9848 35.8558 47.7807 35.0831 48.1781C34.2023 48.6308 33.1561 48.6264 32.2793 48.1657L30.3384 47.1463C27.4908 45.6498 26.7529 45.1905 27.1967 45.1905C27.2416 45.1905 28.144 44.7799 29.2019 44.2783C30.2599 43.7767 31.2164 43.3284 31.3276 43.2822C31.4757 43.2206 31.8171 43.3473 32.6089 43.7583C33.2453 44.0883 33.4851 44.237 33.7235 44.2352C33.9308 44.2339 34.1371 44.1186 34.6013 43.9092Z" fill="#62841B"/>
</svg>
