
<svg width="67" height="67" viewBox="0 0 67 67" fill="none" xmlns="http://www.w3.org/2000/svg">
<path d="M55.2317 55.2237C67.3608 43.0946 67.3608 23.4298 55.2317 11.3008C43.1027 -0.828148 23.4379 -0.828148 11.3089 11.3008C-0.820091 23.4298 -0.820091 43.0946 11.3089 55.2237C23.4379 67.3527 43.1027 67.3527 55.2317 55.2237Z" fill="white"/>
<path d="M33.2629 66.5256C14.9202 66.5256 0 51.6057 0 33.2629C0 14.9202 14.9202 0 33.2629 0C51.6053 0 66.5257 14.9202 66.5257 33.2629C66.5257 51.6057 51.6053 66.5256 33.2629 66.5256ZM33.2629 4.40942C17.3428 4.40942 4.39661 17.3556 4.39661 33.2757C4.39661 49.1958 17.3428 62.1419 33.2629 62.1419C49.1831 62.1419 62.1292 49.1958 62.1292 33.2757C62.1292 17.3556 49.1831 4.40942 33.2629 4.40942Z" fill="#62841B"/>
<path d="M20.8079 32.3716C20.8079 32.1293 20.8558 31.8895 20.9488 31.6658C21.0418 31.4421 21.178 31.239 21.3497 31.0681C21.5215 30.8972 21.7252 30.7619 21.9494 30.67C22.1735 30.5781 22.4136 30.5314 22.6558 30.5325L25.7197 30.5425C26.2082 30.5425 26.6767 30.7366 27.0221 31.082C27.3676 31.4274 27.5617 31.8959 27.5617 32.3844V43.9697C27.9066 43.8672 28.3496 43.758 28.8343 43.6436C29.171 43.5649 29.4711 43.3744 29.6859 43.1033C29.9007 42.8318 30.0175 42.4961 30.0174 42.1503V27.7797C30.0174 27.2911 30.2115 26.8226 30.5569 26.4771C30.9023 26.1316 31.3708 25.9375 31.8594 25.9374H34.9291C35.418 25.9375 35.8861 26.1316 36.2315 26.4771C36.5769 26.8226 36.7714 27.2911 36.7714 27.7797V41.1172C36.7714 41.1172 37.5397 40.8061 38.2885 40.4902C38.5666 40.3722 38.8038 40.1756 38.971 39.9239C39.1377 39.6722 39.2271 39.377 39.2275 39.0751V23.1749C39.2275 22.6864 39.4215 22.218 39.7665 21.8725C40.1119 21.5271 40.5805 21.333 41.0689 21.333H44.1388C44.6272 21.333 45.0958 21.527 45.4412 21.8724C45.7866 22.2178 45.9806 22.6864 45.9806 23.1749V36.2684C48.6422 34.3394 51.3394 32.0196 53.48 29.2299C53.7906 28.825 53.9961 28.3495 54.0784 27.8459C54.1602 27.3423 54.1162 26.8262 53.9503 26.3436C52.9595 23.493 51.3847 20.8805 49.3264 18.6734C47.2681 16.4663 44.7715 14.7133 41.9969 13.5264C39.2222 12.3395 36.2302 11.745 33.2123 11.7808C30.1945 11.8166 27.2175 12.4821 24.4717 13.7345C21.7259 14.987 19.2718 16.7988 17.2664 19.0542C15.261 21.3095 13.7486 23.9586 12.8257 26.832C11.903 29.7055 11.5902 32.7399 11.9075 35.7412C12.2248 38.7425 13.1651 41.6443 14.6682 44.2614C14.9301 44.7128 15.3154 45.0802 15.7787 45.32C16.2421 45.5603 16.7644 45.6632 17.2842 45.6166C17.8649 45.5656 18.5879 45.4934 19.4475 45.3922C19.8217 45.35 20.1671 45.1713 20.4181 44.8902C20.6691 44.6094 20.8079 44.246 20.8082 43.8698L20.8079 32.3716Z" fill="#62841B"/>
<path d="M20.741 50.9526C23.9769 53.307 27.8011 54.7199 31.7903 55.0358C35.7798 55.3508 39.7785 54.5571 43.3443 52.7407C46.91 50.9244 49.9042 48.1573 51.9951 44.7455C54.0855 41.3333 55.1917 37.4089 55.1904 33.4076C55.1904 32.908 55.167 32.414 55.1341 31.9229C47.2088 43.7427 32.576 49.2683 20.7416 50.9508" fill="#62841B"/>
</svg>
