<svg width="32" height="726" viewBox="0 0 32 726" fill="none" xmlns="http://www.w3.org/2000/svg">
<g clip-path="url(#clip0_113_179)">
<g clip-path="url(#clip1_113_179)">
<path opacity="0.5" d="M16 2.5V724" stroke="url(#paint0_linear_113_179)" stroke-width="4" stroke-linecap="round" stroke-dasharray="8 8"/>
<path d="M16 107C24.8366 107 32 99.8366 32 91C32 82.1634 24.8366 75 16 75C7.16344 75 0 82.1634 0 91C0 99.8366 7.16344 107 16 107Z" fill="#62841B"/>
<path d="M16 99C20.4183 99 24 95.4183 24 91C24 86.5817 20.4183 83 16 83C11.5817 83 8 86.5817 8 91C8 95.4183 11.5817 99 16 99Z" fill="#8FB838"/>
<path d="M16 288C24.8366 288 32 280.837 32 272C32 263.163 24.8366 256 16 256C7.16344 256 0 263.163 0 272C0 280.837 7.16344 288 16 288Z" fill="#62841B"/>
<path d="M16 280C20.4183 280 24 276.418 24 272C24 267.582 20.4183 264 16 264C11.5817 264 8 267.582 8 272C8 276.418 11.5817 280 16 280Z" fill="#8FB838"/>
<path d="M16 469C24.8366 469 32 461.837 32 453C32 444.163 24.8366 437 16 437C7.16344 437 0 444.163 0 453C0 461.837 7.16344 469 16 469Z" fill="#62841B"/>
<path d="M16 461C20.4183 461 24 457.418 24 453C24 448.582 20.4183 445 16 445C11.5817 445 8 448.582 8 453C8 457.418 11.5817 461 16 461Z" fill="#8FB838"/>
<path d="M16 650C24.8366 650 32 642.837 32 634C32 625.163 24.8366 618 16 618C7.16344 618 0 625.163 0 634C0 642.837 7.16344 650 16 650Z" fill="#62841B"/>
<path d="M16 642C20.4183 642 24 638.418 24 634C24 629.582 20.4183 626 16 626C11.5817 626 8 629.582 8 634C8 638.418 11.5817 642 16 642Z" fill="#8FB838"/>
</g>
</g>
<defs>
<linearGradient id="paint0_linear_113_179" x1="-nan" y1="-nan" x2="-nan" y2="-nan" gradientUnits="userSpaceOnUse">
<stop offset="0.89105" stop-color="#4F6918"/>
<stop offset="1"/>
</linearGradient>
<clipPath id="clip0_113_179">
<rect width="32" height="726" fill="white"/>
</clipPath>
<clipPath id="clip1_113_179">
<rect width="32" height="726" fill="white"/>
</clipPath>
</defs>
</svg>
