
<svg width="67" height="67" viewBox="0 0 67 67" fill="none" xmlns="http://www.w3.org/2000/svg">
<path d="M55.2317 55.2233C67.3608 43.0942 67.3608 23.4293 55.2317 11.3003C43.1027 -0.828624 23.4379 -0.828624 11.3089 11.3003C-0.820091 23.4293 -0.820091 43.0942 11.3089 55.2233C23.4379 67.3523 43.1027 67.3523 55.2317 55.2233Z" fill="white"/>
<path d="M33.2704 66.5257C14.9278 66.5257 0.00756836 51.6053 0.00756836 33.2629C0.00756836 14.9202 14.9278 0 33.2704 0C51.6131 0 66.5331 14.9202 66.5331 33.2629C66.5331 51.6053 51.6131 66.5257 33.2704 66.5257ZM33.2704 4.40942C17.3504 4.40942 4.40414 17.3557 4.40414 33.2757C4.40414 49.1959 17.3504 62.142 33.2704 62.142C49.1905 62.142 62.1366 49.1959 62.1366 33.2757C62.1366 17.3557 49.1905 4.40942 33.2704 4.40942Z" fill="#62841B"/>
<path d="M33.2701 11.7783C21.4107 11.7783 11.7856 21.4034 11.7856 33.2629C11.7856 45.1224 21.4107 54.7474 33.2701 54.7474C45.1297 54.7474 54.7547 45.1224 54.7547 33.2629C54.7547 21.4034 45.1297 11.7783 33.2701 11.7783ZM43.239 26.3878C42.9165 29.7824 41.5204 38.0322 40.8111 41.8352C40.5106 43.4464 39.9091 43.9837 39.3503 44.0479C38.1042 44.1553 37.1586 43.2317 35.9557 42.4366C34.065 41.1906 32.9909 40.417 31.1647 39.2141C29.0377 37.8175 30.4127 37.044 31.6373 35.7979C31.9596 35.4758 37.4596 30.4699 37.567 30.0187C37.5819 29.9504 37.5802 29.8794 37.5612 29.812C37.5428 29.7446 37.5076 29.6828 37.4596 29.632C37.3307 29.5245 37.1586 29.5675 37.0086 29.589C36.815 29.632 33.8072 31.63 27.942 35.5832C27.0826 36.1631 26.3092 36.4641 25.6217 36.4425C24.8482 36.421 23.3873 36.0131 22.2916 35.6474C20.938 35.218 19.8853 34.9817 19.9712 34.2298C20.0142 33.843 20.5513 33.4562 21.5611 33.048C27.8346 30.3195 32.0025 28.5148 34.0866 27.6554C40.0591 25.1632 41.2841 24.7335 42.1003 24.7335C42.2723 24.7335 42.6802 24.7764 42.938 24.9913C43.1532 25.1632 43.2174 25.3995 43.239 25.5714C43.2174 25.7003 43.2606 26.087 43.239 26.3878Z" fill="#62841B"/>
</svg>
