
<svg width="67" height="67" viewBox="0 0 67 67" fill="none" xmlns="http://www.w3.org/2000/svg">
<path d="M55.2317 55.2237C67.3608 43.0946 67.3608 23.4298 55.2317 11.3008C43.1027 -0.828148 23.4379 -0.828148 11.3089 11.3008C-0.820091 23.4298 -0.820091 43.0946 11.3089 55.2237C23.4379 67.3527 43.1027 67.3527 55.2317 55.2237Z" fill="white"/>
<path d="M33.2629 66.5256C14.9202 66.5256 0 51.6057 0 33.2629C0 14.9202 14.9202 0 33.2629 0C51.6053 0 66.5257 14.9202 66.5257 33.2629C66.5257 51.6057 51.6053 66.5256 33.2629 66.5256ZM33.2629 4.40942C17.3428 4.40942 4.39661 17.3556 4.39661 33.2757C4.39661 49.1958 17.3428 62.1419 33.2629 62.1419C49.1831 62.1419 62.1292 49.1958 62.1292 33.2757C62.1292 17.3556 49.1831 4.40942 33.2629 4.40942Z" fill="#62841B"/>
<path d="M33.3474 55.3389C45.4977 55.3389 55.3474 45.4891 55.3474 33.3389C55.3474 21.1886 45.4977 11.3389 33.3474 11.3389C21.1971 11.3389 11.3474 21.1886 11.3474 33.3389C11.3474 45.4891 21.1971 55.3389 33.3474 55.3389Z" fill="#62841B"/>
<path d="M28.2273 20.5791H19.2673L29.8401 34.6345L19.8433 46.0991H23.2353L31.412 36.7218L38.4672 46.0991H47.4273L36.4093 31.4532L45.8913 20.5791H42.4993L34.8372 29.3656L28.2273 20.5791ZM39.7471 43.5471L24.3873 23.1311H26.9473L42.3075 43.5471H39.7471Z" fill="white"/>
</svg>
